. 
  
http://www.torrentday.com/        :     The Hottest Private Tracker On The Net!!!


               www . TorrentDay . Com 
(((((((((((((= Enjoy No RAR releases =))))))))))))))))))))


...................................NFO:....................................

.[img]http://leetleech.org/images/35337218300716387484.jpg[/img] 

[b]Rampage 2009 480p BRRip XviD AC3-LEGi0N

[img]http://leetleech.org/images/48874973695367351744.png[/img]
[color=red]General[/color]
Format:AVI 
File size: 1.37 GiB
Duration: 1h 19mn
Overall bit rate: 2 460 Kbps
IMDb Rating: 6.4/10   2,007 votes
Genre: Action | Crime | Drama | Thriller 
Release Date: 29 April 2010             
IMDb Link: http://www.imdb.com/title/tt1337057/
Source: 720p Bluray x264-CiNEFiLE 

[color=red]Video[/color]
Format: MPEG-4 Visual
Format profile: Streaming Video@L1
Format settings, BVOP: Yes
Format settings, QPel: No
Format settings, GMC: No warppoints
Format settings, Matrix: Default (H.263)
Muxing mode: Packed bitstream
Codec ID: XVID
Bit rate: 2 003 Kbps
Width: 720 pixels
Height: 304 pixels
Display aspect ratio: 2.35
Frame rate: 23.976 fps
Resolution: 24 bits
Colorimetry: 4:2:0
Scan type: Progressive
Bits/(Pixel*Frame): 0.382
Stream size: 1.11 GiB (81%)

[color=red]Audio[/color]
Format: AC-3
Bit rate mode: Constant
Bit rate: 448 Kbps
Channel(s): 6 channels
Sampling rate: 48.0 KHz
Stream size: 255 MiB (18%) 

[img]http://leetleech.org/images/89524873606771859129.png[/img]
A man with a thirst for revenge builds a full body armor from 
Kevlar and goes on a killing spree.          
                                   
[img]http://leetleech.org/images/84434050717770922575.png[/img]
Brendan Fletcher	... 	Bill Williamson
Shaun Sipos	... 	Evan Drince
Michael Par	... 	Sheriff Melvoy
Matt Frewer	... 	Mr. Williamson
Lynda Boyd	... 	Mrs. Williamson
Robert Clarke	... 	Evan's Father
Malcolm Stewart	... 	Bank Manager
Steffen Mennekes	... 	Cashier
Katey Grace	... 	Bank Teller
Laurie Brunetti	... 	Body Shop Boss (as Laurie J. Brunetti)
Mark Brandon	... 	Reporter #1
Julie Patzwald	... 	Beauty Staff #1
Katharine Isabelle	... 	Beauty Staff #2
Colette Perry	... 	Beauty Staff #3
Michaela Mann	... 	Waitress 

[color=red]GREETZ[/color]
Noir | xXTHORNXx | bigimac | LUSi |

kempas | KaN1vE | mike160 | skillz |

Lungbuster | Sheikh | DiLLoN1369  |

0B5C3N3 | FLAWL3SS | AND ALL P2P![/b]

[color=red]SAMPLE INCLUDED[/color]

[img]http://leetleech.org/images/95521316153253938506.png[/img]
[img]http://leetleech.org/images/83736647113657541413.png[/img]
[img]http://leetleech.org/images/20072107484950731279.png[/img] 
[img]http://leetleech.org/images/13318324874596489545.png[/img] 
[img]http://leetleech.org/images/95214805991382547412.png[/img]
[img]http://leetleech.org/images/68110722817150072699.png[/img]
[img]http://leetleech.org/images/12755021538703799215.png[/img]